<svg width="472" height="132" viewBox="0 0 472 132" fill="none" xmlns="http://www.w3.org/2000/svg">
<g clip-path="url(#clip0_2966_186)">
<path d="M467.597 125.144C467.047 125.142 466.574 125.006 466.178 124.738C465.784 124.469 465.48 124.081 465.267 123.571C465.056 123.062 464.952 122.45 464.954 121.734C464.954 121.02 465.059 120.412 465.27 119.909C465.483 119.406 465.787 119.023 466.181 118.761C466.577 118.497 467.049 118.365 467.597 118.365C468.145 118.365 468.615 118.497 469.01 118.761C469.406 119.026 469.711 119.409 469.924 119.912C470.137 120.413 470.242 121.02 470.24 121.734C470.24 122.452 470.134 123.065 469.92 123.575C469.71 124.084 469.407 124.473 469.013 124.741C468.619 125.01 468.147 125.144 467.597 125.144ZM467.597 123.996C467.972 123.996 468.271 123.808 468.495 123.431C468.719 123.054 468.83 122.488 468.827 121.734C468.827 121.237 468.776 120.824 468.674 120.494C468.574 120.163 468.431 119.915 468.246 119.749C468.062 119.583 467.846 119.5 467.597 119.5C467.224 119.5 466.926 119.686 466.702 120.059C466.478 120.432 466.365 120.99 466.363 121.734C466.363 122.237 466.413 122.656 466.513 122.993C466.616 123.327 466.76 123.579 466.945 123.747C467.13 123.913 467.348 123.996 467.597 123.996Z" fill="#868F97"/>
<path d="M455.878 85.4545V92H454.494V86.7681H454.456L452.957 87.7077V86.4805L454.577 85.4545H455.878ZM457.891 92.0831C457.68 92.0831 457.499 92.0085 457.348 91.8594C457.198 91.7081 457.124 91.527 457.124 91.3161C457.124 91.1072 457.198 90.9283 457.348 90.7791C457.499 90.63 457.68 90.5554 457.891 90.5554C458.095 90.5554 458.274 90.63 458.428 90.7791C458.581 90.9283 458.658 91.1072 458.658 91.3161C458.658 91.4567 458.622 91.5856 458.549 91.7028C458.479 91.8178 458.386 91.9105 458.271 91.9808C458.156 92.049 458.029 92.0831 457.891 92.0831ZM461.971 92.0895C461.494 92.0895 461.069 92.0075 460.696 91.8434C460.325 91.6772 460.032 91.4492 459.817 91.1594C459.604 90.8675 459.494 90.5309 459.488 90.1495H460.882C460.89 90.3093 460.942 90.4499 461.038 90.5714C461.136 90.6907 461.266 90.7834 461.428 90.8494C461.59 90.9155 461.772 90.9485 461.975 90.9485C462.186 90.9485 462.372 90.9112 462.534 90.8366C462.696 90.7621 462.823 90.6587 462.914 90.5266C463.006 90.3945 463.052 90.2422 463.052 90.0696C463.052 89.8949 463.003 89.7404 462.905 89.6062C462.809 89.4698 462.67 89.3633 462.489 89.2866C462.31 89.2099 462.097 89.1715 461.85 89.1715H461.24V88.1552H461.85C462.059 88.1552 462.243 88.119 462.403 88.0465C462.565 87.9741 462.691 87.8739 462.78 87.7461C462.869 87.6161 462.914 87.4648 462.914 87.2923C462.914 87.1282 462.875 86.9844 462.796 86.8608C462.719 86.7351 462.611 86.6371 462.47 86.5668C462.331 86.4964 462.17 86.4613 461.984 86.4613C461.797 86.4613 461.625 86.4954 461.47 86.5636C461.314 86.6296 461.189 86.7244 461.096 86.848C461.002 86.9716 460.952 87.1165 460.945 87.2827H459.619C459.626 86.9055 459.733 86.5732 459.942 86.2855C460.151 85.9979 460.432 85.7731 460.786 85.6112C461.142 85.4471 461.543 85.3651 461.991 85.3651C462.442 85.3651 462.838 85.4471 463.176 85.6112C463.515 85.7752 463.778 85.9968 463.966 86.2759C464.155 86.5529 464.249 86.864 464.247 87.2092C464.249 87.5756 464.135 87.8814 463.905 88.1264C463.677 88.3714 463.38 88.527 463.013 88.593V88.6442C463.495 88.706 463.861 88.8732 464.113 89.146C464.366 89.4165 464.492 89.7553 464.49 90.1623C464.492 90.5352 464.384 90.8665 464.167 91.1562C463.952 91.446 463.655 91.674 463.275 91.8402C462.896 92.0064 462.461 92.0895 461.971 92.0895ZM467.875 92.0895C467.424 92.0895 467.021 92.0064 466.667 91.8402C466.316 91.674 466.036 91.445 465.83 91.1531C465.623 90.8612 465.516 90.5266 465.507 90.1495H466.849C466.864 90.4031 466.971 90.6087 467.169 90.7663C467.367 90.924 467.603 91.0028 467.875 91.0028C468.093 91.0028 468.284 90.9549 468.451 90.859C468.619 90.761 468.75 90.6257 468.844 90.4531C468.94 90.2784 468.987 90.0781 468.987 89.8523C468.987 89.6222 468.938 89.4197 468.84 89.245C468.745 89.0703 468.611 88.9339 468.441 88.8359C468.271 88.7379 468.076 88.6879 467.856 88.6857C467.664 88.6857 467.478 88.7251 467.297 88.804C467.118 88.8828 466.978 88.9904 466.878 89.1268L465.648 88.9062L465.958 85.4545H469.959V86.5859H467.099L466.929 88.2255H466.968C467.083 88.0636 467.256 87.9293 467.489 87.8228C467.721 87.7163 467.981 87.663 468.268 87.663C468.663 87.663 469.014 87.7557 469.323 87.9411C469.632 88.1264 469.876 88.381 470.055 88.7049C470.234 89.0266 470.322 89.3974 470.32 89.8171C470.322 90.2582 470.22 90.6502 470.013 90.9933C469.809 91.3342 469.522 91.6026 469.154 91.7987C468.787 91.9925 468.361 92.0895 467.875 92.0895Z" fill="#868F97"/>
<path d="M452.031 59V58.0028L454.36 55.8455C454.559 55.6538 454.725 55.4812 454.859 55.3278C454.995 55.1744 455.099 55.0241 455.169 54.8771C455.239 54.728 455.275 54.5671 455.275 54.3945C455.275 54.2028 455.231 54.0376 455.143 53.8991C455.056 53.7585 454.937 53.6509 454.786 53.5763C454.634 53.4996 454.463 53.4613 454.271 53.4613C454.071 53.4613 453.896 53.5018 453.747 53.5827C453.598 53.6637 453.483 53.7798 453.402 53.9311C453.321 54.0824 453.28 54.2624 453.28 54.4712H451.967C451.967 54.043 452.064 53.6712 452.257 53.3558C452.451 53.0405 452.723 52.7965 453.072 52.6239C453.422 52.4513 453.825 52.3651 454.281 52.3651C454.749 52.3651 455.157 52.4482 455.505 52.6143C455.854 52.7784 456.126 53.0064 456.32 53.2983C456.513 53.5902 456.61 53.9247 456.61 54.3018C456.61 54.549 456.561 54.793 456.463 55.0337C456.368 55.2745 456.196 55.5419 455.949 55.8359C455.702 56.1278 455.353 56.4783 454.904 56.8874L453.948 57.8239V57.8686H456.697V59H452.031ZM458.508 59.0831C458.297 59.0831 458.116 59.0085 457.965 58.8594C457.816 58.7081 457.741 58.527 457.741 58.3161C457.741 58.1072 457.816 57.9283 457.965 57.7791C458.116 57.63 458.297 57.5554 458.508 57.5554C458.713 57.5554 458.892 57.63 459.045 57.7791C459.198 57.9283 459.275 58.1072 459.275 58.3161C459.275 58.4567 459.239 58.5856 459.166 58.7028C459.096 58.8178 459.003 58.9105 458.888 58.9808C458.773 59.049 458.647 59.0831 458.508 59.0831ZM460.393 59L463.106 53.6307V53.5859H459.945V52.4545H464.538V53.6019L461.822 59H460.393ZM467.912 59.1438C467.363 59.1417 466.89 59.0064 466.493 58.7379C466.099 58.4695 465.796 58.0806 465.582 57.5714C465.372 57.0621 465.267 56.4496 465.269 55.7337C465.269 55.0199 465.375 54.4116 465.586 53.9087C465.799 53.4059 466.102 53.0234 466.497 52.7614C466.893 52.4972 467.365 52.3651 467.912 52.3651C468.46 52.3651 468.931 52.4972 469.325 52.7614C469.721 53.0256 470.026 53.4091 470.239 53.9119C470.452 54.4126 470.558 55.0199 470.555 55.7337C470.555 56.4517 470.449 57.0653 470.236 57.5746C470.025 58.0838 469.722 58.4727 469.328 58.7411C468.934 59.0096 468.462 59.1438 467.912 59.1438ZM467.912 57.9964C468.287 57.9964 468.587 57.8079 468.81 57.4308C469.034 57.0536 469.145 56.4879 469.143 55.7337C469.143 55.2372 469.092 54.8239 468.989 54.4936C468.889 54.1634 468.747 53.9151 468.561 53.7489C468.378 53.5827 468.162 53.4996 467.912 53.4996C467.54 53.4996 467.241 53.6861 467.017 54.0589C466.794 54.4318 466.681 54.9901 466.679 55.7337C466.679 56.2365 466.729 56.6562 466.829 56.9929C466.931 57.3274 467.075 57.5788 467.26 57.7472C467.446 57.9134 467.663 57.9964 467.912 57.9964Z" fill="#868F97"/>
<path d="M450.931 24.8494V23.7596L453.664 19.4545H454.604V20.9631H454.048L452.325 23.6893V23.7404H456.208V24.8494H450.931ZM454.073 26V24.517L454.099 24.0344V19.4545H455.396V26H454.073ZM457.816 26.0831C457.605 26.0831 457.424 26.0085 457.272 25.8594C457.123 25.7081 457.049 25.527 457.049 25.3161C457.049 25.1072 457.123 24.9283 457.272 24.7791C457.424 24.63 457.605 24.5554 457.816 24.5554C458.02 24.5554 458.199 24.63 458.353 24.7791C458.506 24.9283 458.583 25.1072 458.583 25.3161C458.583 25.4567 458.547 25.5856 458.474 25.7028C458.404 25.8178 458.311 25.9105 458.196 25.9808C458.081 26.049 457.954 26.0831 457.816 26.0831ZM461.991 26.1438C461.441 26.1417 460.968 26.0064 460.571 25.7379C460.177 25.4695 459.874 25.0806 459.661 24.5714C459.45 24.0621 459.345 23.4496 459.347 22.7337C459.347 22.0199 459.453 21.4116 459.664 20.9087C459.877 20.4059 460.18 20.0234 460.575 19.7614C460.971 19.4972 461.443 19.3651 461.991 19.3651C462.538 19.3651 463.009 19.4972 463.403 19.7614C463.799 20.0256 464.104 20.4091 464.317 20.9119C464.53 21.4126 464.636 22.0199 464.634 22.7337C464.634 23.4517 464.527 24.0653 464.314 24.5746C464.103 25.0838 463.801 25.4727 463.406 25.7411C463.012 26.0096 462.54 26.1438 461.991 26.1438ZM461.991 24.9964C462.366 24.9964 462.665 24.8079 462.889 24.4308C463.112 24.0536 463.223 23.4879 463.221 22.7337C463.221 22.2372 463.17 21.8239 463.068 21.4936C462.967 21.1634 462.825 20.9151 462.639 20.7489C462.456 20.5827 462.24 20.4996 461.991 20.4996C461.618 20.4996 461.319 20.6861 461.096 21.0589C460.872 21.4318 460.759 21.9901 460.757 22.7337C460.757 23.2365 460.807 23.6562 460.907 23.9929C461.009 24.3274 461.153 24.5788 461.339 24.7472C461.524 24.9134 461.741 24.9964 461.991 24.9964ZM468.011 26.0895C467.559 26.0895 467.157 26.0064 466.803 25.8402C466.451 25.674 466.172 25.445 465.966 25.1531C465.759 24.8612 465.651 24.5266 465.643 24.1495H466.985C467 24.4031 467.107 24.6087 467.305 24.7663C467.503 24.924 467.738 25.0028 468.011 25.0028C468.228 25.0028 468.42 24.9549 468.586 24.859C468.755 24.761 468.886 24.6257 468.979 24.4531C469.075 24.2784 469.123 24.0781 469.123 23.8523C469.123 23.6222 469.074 23.4197 468.976 23.245C468.88 23.0703 468.747 22.9339 468.577 22.8359C468.406 22.7379 468.211 22.6879 467.992 22.6857C467.8 22.6857 467.614 22.7251 467.433 22.804C467.254 22.8828 467.114 22.9904 467.014 23.1268L465.783 22.9062L466.093 19.4545H470.095V20.5859H467.234L467.065 22.2255H467.103C467.218 22.0636 467.392 21.9293 467.624 21.8228C467.857 21.7163 468.116 21.663 468.404 21.663C468.798 21.663 469.15 21.7557 469.459 21.9411C469.768 22.1264 470.012 22.381 470.191 22.7049C470.37 23.0266 470.458 23.3974 470.456 23.8171C470.458 24.2582 470.356 24.6502 470.149 24.9933C469.945 25.3342 469.658 25.6026 469.289 25.7987C468.923 25.9925 468.497 26.0895 468.011 26.0895Z" fill="#868F97"/>
<mask id="mask0_2966_186" style="mask-type:luminance" maskUnits="userSpaceOnUse" x="18" y="96" width="15" height="41">
<path d="M28 96H23C20.2386 96 18 98.2386 18 101V132C18 134.761 20.2386 137 23 137H28C30.7614 137 33 134.761 33 132V101C33 98.2386 30.7614 96 28 96Z" fill="white"/>
</mask>
<g mask="url(#mask0_2966_186)">
<path d="M33 96H18V132H33V96Z" fill="#FFA16C" fill-opacity="0.19"/>
</g>
<mask id="mask1_2966_186" style="mask-type:luminance" maskUnits="userSpaceOnUse" x="18" y="96" width="15" height="41">
<path d="M28 96H23C20.2386 96 18 98.2386 18 101V132C18 134.761 20.2386 137 23 137H28C30.7614 137 33 134.761 33 132V101C33 98.2386 30.7614 96 28 96Z" fill="white"/>
</mask>
<g mask="url(#mask1_2966_186)">
<path d="M27.5 96.5H23.5C20.7386 96.5 18.5 98.7386 18.5 101.5V162.5C18.5 165.261 20.7386 167.5 23.5 167.5H27.5C30.2614 167.5 32.5 165.261 32.5 162.5V101.5C32.5 98.7386 30.2614 96.5 27.5 96.5Z" stroke="url(#paint0_linear_2966_186)" stroke-linecap="square" stroke-dasharray="1 2"/>
</g>
<mask id="mask2_2966_186" style="mask-type:luminance" maskUnits="userSpaceOnUse" x="59" y="51" width="15" height="86">
<path d="M69 51H64C61.2386 51 59 53.2386 59 56V132C59 134.761 61.2386 137 64 137H69C71.7614 137 74 134.761 74 132V56C74 53.2386 71.7614 51 69 51Z" fill="white"/>
</mask>
<g mask="url(#mask2_2966_186)">
<path d="M74 51H59V132H74V51Z" fill="#FFA16C" fill-opacity="0.19"/>
</g>
<mask id="mask3_2966_186" style="mask-type:luminance" maskUnits="userSpaceOnUse" x="59" y="51" width="15" height="86">
<path d="M69 51H64C61.2386 51 59 53.2386 59 56V132C59 134.761 61.2386 137 64 137H69C71.7614 137 74 134.761 74 132V56C74 53.2386 71.7614 51 69 51Z" fill="white"/>
</mask>
<g mask="url(#mask3_2966_186)">
<path d="M68.5 51.5H64.5C61.7386 51.5 59.5 53.7386 59.5 56.5V207.5C59.5 210.261 61.7386 212.5 64.5 212.5H68.5C71.2614 212.5 73.5 210.261 73.5 207.5V56.5C73.5 53.7386 71.2614 51.5 68.5 51.5Z" stroke="url(#paint1_linear_2966_186)" stroke-linecap="square" stroke-dasharray="1 2"/>
</g>
<mask id="mask4_2966_186" style="mask-type:luminance" maskUnits="userSpaceOnUse" x="100" y="66" width="15" height="71">
<path d="M110 66H105C102.239 66 100 68.2386 100 71V132C100 134.761 102.239 137 105 137H110C112.761 137 115 134.761 115 132V71C115 68.2386 112.761 66 110 66Z" fill="white"/>
</mask>
<g mask="url(#mask4_2966_186)">
<path d="M115 66H100V132H115V66Z" fill="#FFA16C" fill-opacity="0.19"/>
</g>
<mask id="mask5_2966_186" style="mask-type:luminance" maskUnits="userSpaceOnUse" x="100" y="66" width="15" height="71">
<path d="M110 66H105C102.239 66 100 68.2386 100 71V132C100 134.761 102.239 137 105 137H110C112.761 137 115 134.761 115 132V71C115 68.2386 112.761 66 110 66Z" fill="white"/>
</mask>
<g mask="url(#mask5_2966_186)">
<path d="M109.5 66.5H105.5C102.739 66.5 100.5 68.7386 100.5 71.5V192.5C100.5 195.261 102.739 197.5 105.5 197.5H109.5C112.261 197.5 114.5 195.261 114.5 192.5V71.5C114.5 68.7386 112.261 66.5 109.5 66.5Z" stroke="url(#paint2_linear_2966_186)" stroke-linecap="square" stroke-dasharray="1 2"/>
</g>
<mask id="mask6_2966_186" style="mask-type:luminance" maskUnits="userSpaceOnUse" x="141" y="126" width="15" height="11">
<path d="M151 126H146C143.239 126 141 128.239 141 131V132C141 134.761 143.239 137 146 137H151C153.761 137 156 134.761 156 132V131C156 128.239 153.761 126 151 126Z" fill="white"/>
</mask>
<g mask="url(#mask6_2966_186)">
<path d="M156 126H141V132H156V126Z" fill="#FFA16C" fill-opacity="0.19"/>
</g>
<mask id="mask7_2966_186" style="mask-type:luminance" maskUnits="userSpaceOnUse" x="141" y="126" width="15" height="11">
<path d="M151 126H146C143.239 126 141 128.239 141 131V132C141 134.761 143.239 137 146 137H151C153.761 137 156 134.761 156 132V131C156 128.239 153.761 126 151 126Z" fill="white"/>
</mask>
<g mask="url(#mask7_2966_186)">
<path d="M150.5 126.5H146.5C143.739 126.5 141.5 128.739 141.5 131.5V132.5C141.5 135.261 143.739 137.5 146.5 137.5H150.5C153.261 137.5 155.5 135.261 155.5 132.5V131.5C155.5 128.739 153.261 126.5 150.5 126.5Z" stroke="url(#paint3_linear_2966_186)" stroke-linecap="square" stroke-dasharray="1 2"/>
</g>
<mask id="mask8_2966_186" style="mask-type:luminance" maskUnits="userSpaceOnUse" x="182" y="60" width="15" height="77">
<path d="M192 60H187C184.239 60 182 62.2386 182 65V132C182 134.761 184.239 137 187 137H192C194.761 137 197 134.761 197 132V65C197 62.2386 194.761 60 192 60Z" fill="white"/>
</mask>
<g mask="url(#mask8_2966_186)">
<path d="M197 60H182V132H197V60Z" fill="#FFA16C" fill-opacity="0.19"/>
</g>
<mask id="mask9_2966_186" style="mask-type:luminance" maskUnits="userSpaceOnUse" x="182" y="60" width="15" height="77">
<path d="M192 60H187C184.239 60 182 62.2386 182 65V132C182 134.761 184.239 137 187 137H192C194.761 137 197 134.761 197 132V65C197 62.2386 194.761 60 192 60Z" fill="white"/>
</mask>
<g mask="url(#mask9_2966_186)">
<path d="M191.5 60.5H187.5C184.739 60.5 182.5 62.7386 182.5 65.5V198.5C182.5 201.261 184.739 203.5 187.5 203.5H191.5C194.261 203.5 196.5 201.261 196.5 198.5V65.5C196.5 62.7386 194.261 60.5 191.5 60.5Z" stroke="url(#paint4_linear_2966_186)" stroke-linecap="square" stroke-dasharray="1 2"/>
</g>
<mask id="mask10_2966_186" style="mask-type:luminance" maskUnits="userSpaceOnUse" x="223" y="111" width="15" height="26">
<path d="M233 111H228C225.239 111 223 113.239 223 116V132C223 134.761 225.239 137 228 137H233C235.761 137 238 134.761 238 132V116C238 113.239 235.761 111 233 111Z" fill="white"/>
</mask>
<g mask="url(#mask10_2966_186)">
<path d="M238 111H223V132H238V111Z" fill="#FFA16C" fill-opacity="0.19"/>
</g>
<mask id="mask11_2966_186" style="mask-type:luminance" maskUnits="userSpaceOnUse" x="223" y="111" width="15" height="26">
<path d="M233 111H228C225.239 111 223 113.239 223 116V132C223 134.761 225.239 137 228 137H233C235.761 137 238 134.761 238 132V116C238 113.239 235.761 111 233 111Z" fill="white"/>
</mask>
<g mask="url(#mask11_2966_186)">
<path d="M232.5 111.5H228.5C225.739 111.5 223.5 113.739 223.5 116.5V147.5C223.5 150.261 225.739 152.5 228.5 152.5H232.5C235.261 152.5 237.5 150.261 237.5 147.5V116.5C237.5 113.739 235.261 111.5 232.5 111.5Z" stroke="url(#paint5_linear_2966_186)" stroke-linecap="square" stroke-dasharray="1 2"/>
</g>
<mask id="mask12_2966_186" style="mask-type:luminance" maskUnits="userSpaceOnUse" x="264" y="96" width="15" height="41">
<path d="M274 96H269C266.239 96 264 98.2386 264 101V132C264 134.761 266.239 137 269 137H274C276.761 137 279 134.761 279 132V101C279 98.2386 276.761 96 274 96Z" fill="white"/>
</mask>
<g mask="url(#mask12_2966_186)">
<path d="M279 96H264V132H279V96Z" fill="#FFA16C" fill-opacity="0.19"/>
</g>
<mask id="mask13_2966_186" style="mask-type:luminance" maskUnits="userSpaceOnUse" x="264" y="96" width="15" height="41">
<path d="M274 96H269C266.239 96 264 98.2386 264 101V132C264 134.761 266.239 137 269 137H274C276.761 137 279 134.761 279 132V101C279 98.2386 276.761 96 274 96Z" fill="white"/>
</mask>
<g mask="url(#mask13_2966_186)">
<path d="M273.5 96.5H269.5C266.739 96.5 264.5 98.7386 264.5 101.5V162.5C264.5 165.261 266.739 167.5 269.5 167.5H273.5C276.261 167.5 278.5 165.261 278.5 162.5V101.5C278.5 98.7386 276.261 96.5 273.5 96.5Z" stroke="url(#paint6_linear_2966_186)" stroke-linecap="square" stroke-dasharray="1 2"/>
</g>
<mask id="mask14_2966_186" style="mask-type:luminance" maskUnits="userSpaceOnUse" x="305" y="105" width="15" height="32">
<path d="M315 105H310C307.239 105 305 107.239 305 110V132C305 134.761 307.239 137 310 137H315C317.761 137 320 134.761 320 132V110C320 107.239 317.761 105 315 105Z" fill="white"/>
</mask>
<g mask="url(#mask14_2966_186)">
<path d="M320 105H305V132H320V105Z" fill="#FFA16C" fill-opacity="0.19"/>
</g>
<mask id="mask15_2966_186" style="mask-type:luminance" maskUnits="userSpaceOnUse" x="305" y="105" width="15" height="32">
<path d="M315 105H310C307.239 105 305 107.239 305 110V132C305 134.761 307.239 137 310 137H315C317.761 137 320 134.761 320 132V110C320 107.239 317.761 105 315 105Z" fill="white"/>
</mask>
<g mask="url(#mask15_2966_186)">
<path d="M314.5 105.5H310.5C307.739 105.5 305.5 107.739 305.5 110.5V153.5C305.5 156.261 307.739 158.5 310.5 158.5H314.5C317.261 158.5 319.5 156.261 319.5 153.5V110.5C319.5 107.739 317.261 105.5 314.5 105.5Z" stroke="url(#paint7_linear_2966_186)" stroke-linecap="square" stroke-dasharray="1 2"/>
</g>
<mask id="mask16_2966_186" style="mask-type:luminance" maskUnits="userSpaceOnUse" x="346" y="101" width="15" height="36">
<path d="M356 101H351C348.239 101 346 103.239 346 106V132C346 134.761 348.239 137 351 137H356C358.761 137 361 134.761 361 132V106C361 103.239 358.761 101 356 101Z" fill="white"/>
</mask>
<g mask="url(#mask16_2966_186)">
<path d="M361 101H346V132H361V101Z" fill="#FFA16C" fill-opacity="0.19"/>
</g>
<mask id="mask17_2966_186" style="mask-type:luminance" maskUnits="userSpaceOnUse" x="346" y="101" width="15" height="36">
<path d="M356 101H351C348.239 101 346 103.239 346 106V132C346 134.761 348.239 137 351 137H356C358.761 137 361 134.761 361 132V106C361 103.239 358.761 101 356 101Z" fill="white"/>
</mask>
<g mask="url(#mask17_2966_186)">
<path d="M355.5 101.5H351.5C348.739 101.5 346.5 103.739 346.5 106.5V157.5C346.5 160.261 348.739 162.5 351.5 162.5H355.5C358.261 162.5 360.5 160.261 360.5 157.5V106.5C360.5 103.739 358.261 101.5 355.5 101.5Z" stroke="url(#paint8_linear_2966_186)" stroke-linecap="square" stroke-dasharray="1 2"/>
</g>
<mask id="mask18_2966_186" style="mask-type:luminance" maskUnits="userSpaceOnUse" x="387" y="27" width="15" height="110">
<path d="M397 27H392C389.239 27 387 29.2386 387 32V132C387 134.761 389.239 137 392 137H397C399.761 137 402 134.761 402 132V32C402 29.2386 399.761 27 397 27Z" fill="white"/>
</mask>
<g mask="url(#mask18_2966_186)">
<path d="M402 27H387V132H402V27Z" fill="#FFA16C" fill-opacity="0.19"/>
</g>
<mask id="mask19_2966_186" style="mask-type:luminance" maskUnits="userSpaceOnUse" x="387" y="27" width="15" height="110">
<path d="M397 27H392C389.239 27 387 29.2386 387 32V132C387 134.761 389.239 137 392 137H397C399.761 137 402 134.761 402 132V32C402 29.2386 399.761 27 397 27Z" fill="white"/>
</mask>
<g mask="url(#mask19_2966_186)">
<path d="M396.5 27.5H392.5C389.739 27.5 387.5 29.7386 387.5 32.5V231.5C387.5 234.261 389.739 236.5 392.5 236.5H396.5C399.261 236.5 401.5 234.261 401.5 231.5V32.5C401.5 29.7386 399.261 27.5 396.5 27.5Z" stroke="url(#paint9_linear_2966_186)" stroke-linecap="square" stroke-dasharray="1 2"/>
</g>
<mask id="mask20_2966_186" style="mask-type:luminance" maskUnits="userSpaceOnUse" x="428" y="109" width="15" height="28">
<path d="M438 109H433C430.239 109 428 111.239 428 114V132C428 134.761 430.239 137 433 137H438C440.761 137 443 134.761 443 132V114C443 111.239 440.761 109 438 109Z" fill="white"/>
</mask>
<g mask="url(#mask20_2966_186)">
<path d="M443 109H428V132H443V109Z" fill="#FFA16C" fill-opacity="0.19"/>
</g>
<mask id="mask21_2966_186" style="mask-type:luminance" maskUnits="userSpaceOnUse" x="428" y="109" width="15" height="28">
<path d="M438 109H433C430.239 109 428 111.239 428 114V132C428 134.761 430.239 137 433 137H438C440.761 137 443 134.761 443 132V114C443 111.239 440.761 109 438 109Z" fill="white"/>
</mask>
<g mask="url(#mask21_2966_186)">
<path d="M437.5 109.5H433.5C430.739 109.5 428.5 111.739 428.5 114.5V149.5C428.5 152.261 430.739 154.5 433.5 154.5H437.5C440.261 154.5 442.5 152.261 442.5 149.5V114.5C442.5 111.739 440.261 109.5 437.5 109.5Z" stroke="url(#paint10_linear_2966_186)" stroke-linecap="square" stroke-dasharray="1 2"/>
</g>
<mask id="mask22_2966_186" style="mask-type:luminance" maskUnits="userSpaceOnUse" x="30" y="96" width="16" height="41">
<path d="M40.5 96H35.5C32.7386 96 30.5 98.2386 30.5 101V132C30.5 134.761 32.7386 137 35.5 137H40.5C43.2614 137 45.5 134.761 45.5 132V101C45.5 98.2386 43.2614 96 40.5 96Z" fill="white"/>
</mask>
<g mask="url(#mask22_2966_186)">
<path d="M45.5 96H30.5V132H45.5V96Z" fill="#E6E6E6" fill-opacity="0.9"/>
</g>
<mask id="mask23_2966_186" style="mask-type:luminance" maskUnits="userSpaceOnUse" x="71" y="56" width="16" height="81">
<path d="M81.5 56H76.5C73.7386 56 71.5 58.2386 71.5 61V132C71.5 134.761 73.7386 137 76.5 137H81.5C84.2614 137 86.5 134.761 86.5 132V61C86.5 58.2386 84.2614 56 81.5 56Z" fill="white"/>
</mask>
<g mask="url(#mask23_2966_186)">
<path d="M86.5 56H71.5V132H86.5V56Z" fill="#E6E6E6" fill-opacity="0.9"/>
</g>
<mask id="mask24_2966_186" style="mask-type:luminance" maskUnits="userSpaceOnUse" x="112" y="59" width="16" height="78">
<path d="M122.5 59H117.5C114.739 59 112.5 61.2386 112.5 64V132C112.5 134.761 114.739 137 117.5 137H122.5C125.261 137 127.5 134.761 127.5 132V64C127.5 61.2386 125.261 59 122.5 59Z" fill="white"/>
</mask>
<g mask="url(#mask24_2966_186)">
<path d="M127.5 59H112.5V132H127.5V59Z" fill="#E6E6E6" fill-opacity="0.9"/>
</g>
<mask id="mask25_2966_186" style="mask-type:luminance" maskUnits="userSpaceOnUse" x="153" y="123" width="16" height="14">
<path d="M163.5 123H158.5C155.739 123 153.5 125.239 153.5 128V132C153.5 134.761 155.739 137 158.5 137H163.5C166.261 137 168.5 134.761 168.5 132V128C168.5 125.239 166.261 123 163.5 123Z" fill="white"/>
</mask>
<g mask="url(#mask25_2966_186)">
<path d="M168.5 123H153.5V132H168.5V123Z" fill="#E6E6E6" fill-opacity="0.9"/>
</g>
<mask id="mask26_2966_186" style="mask-type:luminance" maskUnits="userSpaceOnUse" x="194" y="59" width="16" height="78">
<path d="M204.5 59H199.5C196.739 59 194.5 61.2386 194.5 64V132C194.5 134.761 196.739 137 199.5 137H204.5C207.261 137 209.5 134.761 209.5 132V64C209.5 61.2386 207.261 59 204.5 59Z" fill="white"/>
</mask>
<g mask="url(#mask26_2966_186)">
<path d="M209.5 59H194.5V132H209.5V59Z" fill="#E6E6E6" fill-opacity="0.9"/>
</g>
<mask id="mask27_2966_186" style="mask-type:luminance" maskUnits="userSpaceOnUse" x="235" y="114" width="16" height="23">
<path d="M245.5 114H240.5C237.739 114 235.5 116.239 235.5 119V132C235.5 134.761 237.739 137 240.5 137H245.5C248.261 137 250.5 134.761 250.5 132V119C250.5 116.239 248.261 114 245.5 114Z" fill="white"/>
</mask>
<g mask="url(#mask27_2966_186)">
<path d="M250.5 114H235.5V132H250.5V114Z" fill="#E6E6E6" fill-opacity="0.9"/>
</g>
<mask id="mask28_2966_186" style="mask-type:luminance" maskUnits="userSpaceOnUse" x="276" y="95" width="16" height="42">
<path d="M286.5 95H281.5C278.739 95 276.5 97.2386 276.5 100V132C276.5 134.761 278.739 137 281.5 137H286.5C289.261 137 291.5 134.761 291.5 132V100C291.5 97.2386 289.261 95 286.5 95Z" fill="white"/>
</mask>
<g mask="url(#mask28_2966_186)">
<path d="M291.5 95H276.5V132H291.5V95Z" fill="#E6E6E6" fill-opacity="0.9"/>
</g>
<mask id="mask29_2966_186" style="mask-type:luminance" maskUnits="userSpaceOnUse" x="317" y="100" width="16" height="37">
<path d="M327.5 100H322.5C319.739 100 317.5 102.239 317.5 105V132C317.5 134.761 319.739 137 322.5 137H327.5C330.261 137 332.5 134.761 332.5 132V105C332.5 102.239 330.261 100 327.5 100Z" fill="white"/>
</mask>
<g mask="url(#mask29_2966_186)">
<path d="M332.5 100H317.5V132H332.5V100Z" fill="#E6E6E6" fill-opacity="0.9"/>
</g>
<mask id="mask30_2966_186" style="mask-type:luminance" maskUnits="userSpaceOnUse" x="358" y="100" width="16" height="37">
<path d="M368.5 100H363.5C360.739 100 358.5 102.239 358.5 105V132C358.5 134.761 360.739 137 363.5 137H368.5C371.261 137 373.5 134.761 373.5 132V105C373.5 102.239 371.261 100 368.5 100Z" fill="white"/>
</mask>
<g mask="url(#mask30_2966_186)">
<path d="M373.5 100H358.5V132H373.5V100Z" fill="#E6E6E6" fill-opacity="0.9"/>
</g>
<mask id="mask31_2966_186" style="mask-type:luminance" maskUnits="userSpaceOnUse" x="399" y="28" width="16" height="109">
<path d="M409.5 28H404.5C401.739 28 399.5 30.2386 399.5 33V132C399.5 134.761 401.739 137 404.5 137H409.5C412.261 137 414.5 134.761 414.5 132V33C414.5 30.2386 412.261 28 409.5 28Z" fill="white"/>
</mask>
<g mask="url(#mask31_2966_186)">
<path d="M414.5 28H399.5V132H414.5V28Z" fill="#E6E6E6" fill-opacity="0.9"/>
</g>
<mask id="mask32_2966_186" style="mask-type:luminance" maskUnits="userSpaceOnUse" x="440" y="110" width="16" height="27">
<path d="M450.5 110H445.5C442.739 110 440.5 112.239 440.5 115V132C440.5 134.761 442.739 137 445.5 137H450.5C453.261 137 455.5 134.761 455.5 132V115C455.5 112.239 453.261 110 450.5 110Z" fill="white"/>
</mask>
<g mask="url(#mask32_2966_186)">
<path d="M455.5 110H440.5V132H455.5V110Z" fill="#E6E6E6" fill-opacity="0.9"/>
</g>
<path opacity="0.16" d="M0 132H471.5" stroke="#868F97"/>
<path opacity="0.16" d="M0 99H471.5" stroke="#868F97" stroke-dasharray="3 3"/>
<path opacity="0.16" d="M0 66H471.5" stroke="#868F97" stroke-dasharray="3 3"/>
<path opacity="0.16" d="M0 33H471.5" stroke="#868F97" stroke-dasharray="3 3"/>
<path opacity="0.16" d="M0 0H471.5" stroke="#868F97" stroke-dasharray="3 3"/>
</g>
<defs>
<linearGradient id="paint0_linear_2966_186" x1="27" y1="96" x2="27" y2="132" gradientUnits="userSpaceOnUse">
<stop stop-color="#FFA16C"/>
<stop offset="0.790266" stop-color="#FFA16C" stop-opacity="0.36"/>
<stop offset="0.95" stop-color="#FFA16C" stop-opacity="0"/>
</linearGradient>
<linearGradient id="paint1_linear_2966_186" x1="68" y1="51" x2="68" y2="132" gradientUnits="userSpaceOnUse">
<stop stop-color="#FFA16C"/>
<stop offset="0.790266" stop-color="#FFA16C" stop-opacity="0.36"/>
<stop offset="0.95" stop-color="#FFA16C" stop-opacity="0"/>
</linearGradient>
<linearGradient id="paint2_linear_2966_186" x1="109" y1="66" x2="109" y2="132" gradientUnits="userSpaceOnUse">
<stop stop-color="#FFA16C"/>
<stop offset="0.790266" stop-color="#FFA16C" stop-opacity="0.36"/>
<stop offset="0.95" stop-color="#FFA16C" stop-opacity="0"/>
</linearGradient>
<linearGradient id="paint3_linear_2966_186" x1="150" y1="126" x2="150" y2="132" gradientUnits="userSpaceOnUse">
<stop stop-color="#FFA16C"/>
<stop offset="0.790266" stop-color="#FFA16C" stop-opacity="0.36"/>
<stop offset="0.95" stop-color="#FFA16C" stop-opacity="0"/>
</linearGradient>
<linearGradient id="paint4_linear_2966_186" x1="191" y1="60" x2="191" y2="132" gradientUnits="userSpaceOnUse">
<stop stop-color="#FFA16C"/>
<stop offset="0.790266" stop-color="#FFA16C" stop-opacity="0.36"/>
<stop offset="0.95" stop-color="#FFA16C" stop-opacity="0"/>
</linearGradient>
<linearGradient id="paint5_linear_2966_186" x1="232" y1="111" x2="232" y2="132" gradientUnits="userSpaceOnUse">
<stop stop-color="#FFA16C"/>
<stop offset="0.790266" stop-color="#FFA16C" stop-opacity="0.36"/>
<stop offset="0.95" stop-color="#FFA16C" stop-opacity="0"/>
</linearGradient>
<linearGradient id="paint6_linear_2966_186" x1="273" y1="96" x2="273" y2="132" gradientUnits="userSpaceOnUse">
<stop stop-color="#FFA16C"/>
<stop offset="0.790266" stop-color="#FFA16C" stop-opacity="0.36"/>
<stop offset="0.95" stop-color="#FFA16C" stop-opacity="0"/>
</linearGradient>
<linearGradient id="paint7_linear_2966_186" x1="314" y1="105" x2="314" y2="132" gradientUnits="userSpaceOnUse">
<stop stop-color="#FFA16C"/>
<stop offset="0.790266" stop-color="#FFA16C" stop-opacity="0.36"/>
<stop offset="0.95" stop-color="#FFA16C" stop-opacity="0"/>
</linearGradient>
<linearGradient id="paint8_linear_2966_186" x1="355" y1="101" x2="355" y2="132" gradientUnits="userSpaceOnUse">
<stop stop-color="#FFA16C"/>
<stop offset="0.790266" stop-color="#FFA16C" stop-opacity="0.36"/>
<stop offset="0.95" stop-color="#FFA16C" stop-opacity="0"/>
</linearGradient>
<linearGradient id="paint9_linear_2966_186" x1="396" y1="27" x2="396" y2="132" gradientUnits="userSpaceOnUse">
<stop stop-color="#FFA16C"/>
<stop offset="0.790266" stop-color="#FFA16C" stop-opacity="0.36"/>
<stop offset="0.95" stop-color="#FFA16C" stop-opacity="0"/>
</linearGradient>
<linearGradient id="paint10_linear_2966_186" x1="437" y1="109" x2="437" y2="132" gradientUnits="userSpaceOnUse">
<stop stop-color="#FFA16C"/>
<stop offset="0.790266" stop-color="#FFA16C" stop-opacity="0.36"/>
<stop offset="0.95" stop-color="#FFA16C" stop-opacity="0"/>
</linearGradient>
<clipPath id="clip0_2966_186">
<rect width="471.5" height="132" fill="white"/>
</clipPath>
</defs>
</svg>
