<svg width="74" height="74" viewBox="0 0 74 74" fill="none" xmlns="http://www.w3.org/2000/svg">
<path d="M72.5324 45.7289C67.6144 65.4549 47.6344 77.4579 27.9064 72.5399C8.18744 67.6219 -3.81656 47.6419 1.10244 27.9179C6.01844 8.1899 25.9964 -3.8161 45.7184 1.1019C65.4454 6.0199 77.4484 26.0019 72.5304 45.7289H72.5324Z" fill="#F7931A"/>
<path d="M25 31.182V34.4505H35.1158L37.5456 31.182H25Z" fill="white"/>
<path d="M52.7469 36.6834C52.5966 27.556 47.2341 18.5 35.2061 18.5H28.643V25.1243H35.2061C42.8238 25.1243 46.0313 30.8891 46.1817 36.6399C46.332 42.6545 43.1746 48.7886 35.2061 48.7886H28.3118V42.6873H34.6298L37.0438 39.4566L25 39.2954V55.5H35.2061C47.4847 55.5 52.8974 46.0219 52.7469 36.6834Z" fill="white"/>
</svg>
