<svg width="18" height="18" viewBox="0 0 18 18" fill="none" xmlns="http://www.w3.org/2000/svg">
<path d="M8.62485 8.8125H9.18735L8.81235 11.4375H9.18735M15.9375 9C15.9375 12.8315 12.8315 15.9375 9 15.9375C5.16853 15.9375 2.0625 12.8315 2.0625 9C2.0625 5.16853 5.16853 2.0625 9 2.0625C12.8315 2.0625 15.9375 5.16853 15.9375 9Z" stroke="#868F97" stroke-width="1.125" stroke-linecap="round" stroke-linejoin="round"/>
<path d="M9 7.5C9.41421 7.5 9.75 7.16421 9.75 6.75C9.75 6.33579 9.41421 6 9 6C8.58579 6 8.25 6.33579 8.25 6.75C8.25 7.16421 8.58579 7.5 9 7.5Z" fill="#868F97"/>
</svg>
