<svg width="18" height="18" viewBox="0 0 18 18" fill="none" xmlns="http://www.w3.org/2000/svg">
<g clip-path="url(#clip0_3040_210)">
<mask id="mask0_3040_210" style="mask-type:luminance" maskUnits="userSpaceOnUse" x="0" y="0" width="18" height="18">
<path d="M0 0H18V18H0V0Z" fill="white"/>
</mask>
<g mask="url(#mask0_3040_210)">
<path d="M0 0H18V18H0V0Z" fill="black"/>
</g>
<path fill-rule="evenodd" clip-rule="evenodd" d="M8.936 4.00002C9.62001 4.00007 10.2775 4.26451 10.7711 4.73806C11.2647 5.2116 11.5561 5.8576 11.5845 6.54102L11.5865 6.65052V7.43852C12.0322 7.59346 12.4186 7.88334 12.6921 8.2679C12.9656 8.65247 13.1125 9.11264 13.1125 9.58452V11.729C13.1125 12.0273 13.0538 12.3226 12.9396 12.5981C12.8255 12.8736 12.6582 13.124 12.4473 13.3349C12.2365 13.5457 11.9861 13.713 11.7106 13.8271C11.435 13.9413 11.1397 14 10.8415 14H7.0215C6.72323 14.0001 6.42786 13.9414 6.15227 13.8273C5.87668 13.7132 5.62627 13.5459 5.41534 13.335C5.2044 13.1241 5.03708 12.8738 4.92292 12.5982C4.80876 12.3226 4.75 12.0273 4.75 11.729V9.58402C4.75011 9.11222 4.89709 8.65216 5.17055 8.2677C5.444 7.88323 5.83036 7.59343 6.276 7.43852V6.63852C6.27904 5.93595 6.56096 5.26335 7.05976 4.76858C7.55857 4.27381 8.23343 3.99736 8.936 4.00002ZM10.8365 6.65002V7.31352H7.0265V6.64002L7.029 6.54202C7.05666 6.05602 7.26981 5.59918 7.62446 5.26574C7.97911 4.93229 8.44822 4.7477 8.935 4.75002C9.18464 4.74989 9.43187 4.79893 9.66256 4.89434C9.89325 4.98975 10.1029 5.12967 10.2795 5.3061C10.4561 5.48253 10.5963 5.69202 10.6919 5.92261C10.7876 6.1532 10.8364 6.40038 10.8365 6.65002ZM10.8415 8.06352H7.0215C6.82172 8.06345 6.62388 8.10275 6.43929 8.17915C6.25469 8.25556 6.08696 8.36759 5.94567 8.50883C5.80438 8.65008 5.6923 8.81777 5.61583 9.00234C5.53936 9.18691 5.5 9.38474 5.5 9.58452V11.729C5.5 11.9288 5.53934 12.1265 5.61578 12.3111C5.69222 12.4956 5.80425 12.6633 5.94549 12.8045C6.08673 12.9458 6.2544 13.0578 6.43894 13.1342C6.62347 13.2107 6.82126 13.25 7.021 13.25H10.8415C11.0412 13.25 11.239 13.2107 11.4236 13.1342C11.6081 13.0578 11.7758 12.9458 11.917 12.8045C12.0582 12.6633 12.1703 12.4956 12.2467 12.3111C12.3232 12.1265 12.3625 11.9288 12.3625 11.729V9.58402C12.3624 9.18071 12.2021 8.79397 11.9168 8.50883C11.6316 8.2237 11.2448 8.06352 10.8415 8.06352ZM9.303 10.05C9.29005 9.95589 9.24185 9.87019 9.16815 9.81024C9.09445 9.75028 9.00073 9.72053 8.90594 9.72701C8.81115 9.73348 8.72235 9.7757 8.65749 9.84512C8.59262 9.91455 8.55653 10.006 8.5565 10.101V11.211L8.56 11.2625C8.57295 11.3566 8.62115 11.4423 8.69485 11.5023C8.76855 11.5623 8.86227 11.592 8.95706 11.5855C9.05185 11.5791 9.14065 11.5368 9.20551 11.4674C9.27038 11.398 9.30647 11.3065 9.3065 11.2115V10.101L9.303 10.05Z" fill="#FFA16C"/>
</g>
<defs>
<clipPath id="clip0_3040_210">
<rect width="18" height="18" fill="white"/>
</clipPath>
</defs>
</svg>
