<svg width="18" height="18" viewBox="0 0 18 18" fill="none" xmlns="http://www.w3.org/2000/svg">
<g clip-path="url(#clip0_3016_107)">
<mask id="mask0_3016_107" style="mask-type:luminance" maskUnits="userSpaceOnUse" x="0" y="0" width="18" height="18">
<path d="M18 0H0V18H18V0Z" fill="white"/>
</mask>
<g mask="url(#mask0_3016_107)">
<path d="M0 0H18V18H0V0Z" fill="black"/>
<path d="M12.6353 4.40039C12.8041 4.40046 12.9471 4.45301 13.0444 4.57324C13.1386 4.68954 13.1772 4.85305 13.1772 5.0459V12.7676C13.1772 12.9649 13.1275 13.1317 13.0112 13.248C12.8949 13.3644 12.7282 13.4141 12.5308 13.4141C12.3334 13.414 12.1666 13.3644 12.0503 13.248C11.9341 13.1317 11.8853 12.9648 11.8853 12.7676V7.07715L9.67529 10.3281C9.49653 10.589 9.24498 10.7226 8.93018 10.7227C8.6889 10.7227 8.4839 10.5761 8.31396 10.3281L6.09229 7.05859V12.7676C6.09229 12.9649 6.04252 13.1317 5.92627 13.248C5.8099 13.3644 5.64322 13.4141 5.4458 13.4141C5.24843 13.414 5.08168 13.3644 4.96533 13.248C4.84915 13.1317 4.80029 12.9648 4.80029 12.7676V5.0459C4.80031 4.84853 4.84898 4.68178 4.96533 4.56543C5.08168 4.44908 5.24843 4.40041 5.4458 4.40039C5.68889 4.40039 5.89358 4.50656 6.05811 4.7041L6.12646 4.79492L6.12744 4.7959L9.00732 9.12793L11.8882 4.7959C12.0552 4.53174 12.3096 4.40039 12.6353 4.40039Z" fill="#EF9904" stroke="#EF9904" stroke-width="0.2"/>
</g>
</g>
<defs>
<clipPath id="clip0_3016_107">
<rect width="18" height="18" fill="white"/>
</clipPath>
</defs>
</svg>
