<svg xmlns="http://www.w3.org/2000/svg" viewBox="0 0 18 18">
  <g clip-path="url(#a)">
    <path fill="#E7883B" d="M0 0h18v18H0V0Z"/>
    <path fill="#fff" d="M11.755 10.3c-.149-.166-.623-.233-.623-.233l.96-.265s.374-.604.611-1.154L13 7.932C13 6.476 11.092 5.4 9.709 5.4c-1.483 0-2.758.88-3.202 2.12a1.71 1.71 0 0 0-1.068-.276A1.493 1.493 0 0 0 4.075 8.51c-.03.165 0 .33.03.495C2.95 9.033 2 9.914 2 11.015c0 .11 0 .192.03.302 0 .055.059.083.089.083h9.584c.201-.315.348-.771.052-1.1Z"/>
    <path fill="#fff" d="M13.252 7.987h-.143c-.029 0-.057.028-.086.055l-.2.66c-.087.276-.058.551.085.716a.91.91 0 0 0 .602.315l-.058.334c-.741.034-1.545.576-1.7 1.25-.03.028 0 .083.057.083h3.963c.057 0 .086-.027.086-.082.057-.22.114-.468.114-.716 0-1.431-1.231-2.615-2.72-2.615Z"/>
    <path fill="#F8AD3F" d="M6.005 9.9c0-.277.223-.5.498-.5h4.989a.93.93 0 0 0 .77-.39c.36-.52.989-1.506 1.425-2.65-.229.817-.356 1.66-.38 2.508-.008.3.237.532.537.532h.64a.499.499 0 0 1 0 .997H13.28a.827.827 0 0 0-.693.37 30.586 30.586 0 0 0-1.592 2.688c.545-1.494.747-2.262.816-2.654.045-.258-.132-.404-.394-.404H6.503a.499.499 0 0 1-.498-.498Z"/>
  </g>
  <defs>
    <clipPath id="a">
      <path fill="#fff" d="M0 0h18v18H0z"/>
    </clipPath>
  </defs>
</svg>
