<svg width="18" height="18" viewBox="0 0 18 18" fill="none" xmlns="http://www.w3.org/2000/svg">
<g clip-path="url(#clip0_3040_210)">
<mask id="mask0_3040_210" style="mask-type:luminance" maskUnits="userSpaceOnUse" x="0" y="0" width="18" height="18">
<path d="M0 0H18V18H0V0Z" fill="white"/>
</mask>
<g mask="url(#mask0_3040_210)">
<path d="M0 0H18V18H0V0Z" fill="black"/>
</g>
<path d="M12.8979 4.86328L12.0282 5.73291M12.0282 5.73291L13.3327 7.03735L11.8108 8.5592L10.5064 7.25476M12.0282 5.73291L10.5064 7.25476M8.71931 9.04184C8.94382 9.26336 9.1223 9.52711 9.24446 9.81789C9.36662 10.1087 9.43006 10.4207 9.43111 10.7361C9.43217 11.0515 9.37083 11.364 9.25062 11.6556C9.1304 11.9472 8.9537 12.2122 8.73068 12.4352C8.50766 12.6582 8.24272 12.8349 7.95113 12.9551C7.65953 13.0753 7.34704 13.1367 7.03164 13.1356C6.71624 13.1346 6.40416 13.0711 6.11338 12.949C5.8226 12.8268 5.55885 12.6483 5.33733 12.4238C4.9017 11.9728 4.66066 11.3687 4.66611 10.7417C4.67155 10.1146 4.92306 9.5148 5.36646 9.07141C5.80986 8.62801 6.40967 8.3765 7.03671 8.37105C7.66375 8.3656 8.26784 8.60665 8.71888 9.04227L8.71931 9.04184ZM8.71931 9.04184L10.5064 7.25476" stroke="#FFA16C" stroke-width="0.75" stroke-linecap="round" stroke-linejoin="round"/>
</g>
<defs>
<clipPath id="clip0_3040_210">
<rect width="18" height="18" fill="white"/>
</clipPath>
</defs>
</svg>
