<svg width="74" height="74" viewBox="0 0 74 74" fill="none" xmlns="http://www.w3.org/2000/svg">
<path d="M36.821 0C57.156 0 73.642 16.486 73.642 36.821C73.642 57.156 57.155 73.642 36.821 73.642C16.487 73.642 0 57.16 0 36.821C0 16.482 16.484 0 36.821 0Z" fill="#53AE94"/>
<path d="M41.3651 31.915V26.437H53.8911V18.091H19.7831V26.437H32.3101V31.91C22.1291 32.378 14.4741 34.394 14.4741 36.809C14.4741 39.224 22.1331 41.241 32.3101 41.711V59.256H41.3681V41.709C51.5311 41.24 59.1701 39.225 59.1701 36.812C59.1701 34.399 51.5301 32.384 41.3681 31.915M41.3681 40.225V40.22C41.1131 40.236 39.7991 40.315 36.8761 40.315C34.5391 40.315 32.8941 40.249 32.3151 40.219V40.226C23.3201 39.828 16.6071 38.261 16.6071 36.387C16.6071 34.513 23.3221 32.949 32.3151 32.549V38.665C32.9041 38.705 34.5891 38.805 36.9151 38.805C39.7081 38.805 41.1121 38.689 41.3701 38.665V32.55C50.3471 32.95 57.0451 34.518 57.0451 36.385C57.0451 38.253 50.3441 39.821 41.3701 40.221" fill="white"/>
</svg>
