<svg width="74" height="74" viewBox="0 0 74 74" fill="none" xmlns="http://www.w3.org/2000/svg">
<path d="M36.821 73.642C57.227 73.642 73.642 57.227 73.642 36.821C73.642 16.415 57.227 0 36.821 0C16.415 0 0 16.415 0 36.821C0 57.228 16.415 73.642 36.821 73.642Z" fill="#2775CA"/>
<path d="M46.947 42.65C46.947 37.282 43.725 35.44 37.282 34.671C32.679 34.056 31.759 32.83 31.759 30.683C31.759 28.536 33.294 27.156 36.362 27.156C39.124 27.156 40.659 28.077 41.425 30.378C41.58 30.838 42.04 31.144 42.5 31.144H44.956C45.571 31.144 46.031 30.684 46.031 30.069V29.914C45.416 26.538 42.654 23.931 39.127 23.625V19.943C39.127 19.328 38.667 18.868 37.901 18.717H35.6C34.985 18.717 34.525 19.177 34.374 19.943V23.471C29.771 24.086 26.855 27.153 26.855 30.99C26.855 36.053 29.922 38.049 36.366 38.814C40.663 39.58 42.044 40.5 42.044 42.956C42.044 45.412 39.897 47.098 36.981 47.098C32.993 47.098 31.612 45.412 31.152 43.11C30.997 42.495 30.537 42.189 30.077 42.189H27.47C26.855 42.189 26.395 42.649 26.395 43.264V43.419C27.01 47.256 29.462 50.017 34.525 50.783V54.465C34.525 55.08 34.985 55.54 35.751 55.691H38.052C38.667 55.691 39.127 55.231 39.278 54.465V50.783C43.876 50.014 46.947 46.792 46.947 42.65Z" fill="white"/>
<path d="M28.9971 58.759C17.0301 54.462 10.8921 41.114 15.3441 29.302C17.6451 22.858 22.7081 17.95 28.9971 15.649C29.6121 15.343 29.9181 14.883 29.9181 14.114V11.967C29.9181 11.352 29.6121 10.892 28.9971 10.741C28.8421 10.741 28.5371 10.741 28.3821 10.896C13.8081 15.499 5.82912 30.993 10.4321 45.57C13.1931 54.16 19.7921 60.759 28.3821 63.52C28.9971 63.826 29.6081 63.52 29.7631 62.905C29.9181 62.75 29.9181 62.599 29.9181 62.29V60.143C29.9171 59.68 29.4571 59.069 28.9971 58.759ZM45.2571 10.892C44.6421 10.586 44.0311 10.892 43.8761 11.507C43.7211 11.662 43.7211 11.813 43.7211 12.122V14.269C43.7211 14.884 44.1811 15.495 44.6421 15.804C56.6091 20.101 62.7471 33.449 58.2951 45.261C55.9941 51.705 50.9311 56.613 44.6421 58.914C44.0271 59.22 43.7211 59.68 43.7211 60.449V62.596C43.7211 63.211 44.0271 63.671 44.6421 63.822C44.7971 63.822 45.1021 63.822 45.2571 63.667C59.8311 59.064 67.8101 43.57 63.2071 28.993C60.4451 20.252 53.6961 13.654 45.2571 10.892Z" fill="white"/>
</svg>
