<svg width="18" height="18" viewBox="0 0 18 18" fill="none" xmlns="http://www.w3.org/2000/svg">
<g clip-path="url(#clip0_3015_54)">
<path d="M0 0H18V18H0V0Z" fill="black"/>
<path d="M10.7198 4.5H13.0004V10.5984C13.0004 11.3031 12.8326 11.9171 12.4972 12.4403C12.1617 12.9605 11.6939 13.3636 11.0938 13.6499C10.4936 13.933 9.79652 14.0746 9.00249 14.0746C8.19922 14.0746 7.49751 13.933 6.89737 13.6499C6.29723 13.3636 5.83097 12.9605 5.49858 12.4403C5.16619 11.9171 5 11.3031 5 10.5984V4.5H7.28516V10.3999C7.28516 10.7261 7.35594 11.0169 7.49751 11.2724C7.64216 11.5278 7.84375 11.7279 8.10227 11.8725C8.3608 12.0172 8.66087 12.0895 9.00249 12.0895C9.34411 12.0895 9.64264 12.0172 9.89808 11.8725C10.1566 11.7279 10.3582 11.5278 10.5028 11.2724C10.6475 11.0169 10.7198 10.7261 10.7198 10.3999V4.5Z" fill="white"/>
</g>
<defs>
<clipPath id="clip0_3015_54">
<rect width="18" height="18" fill="white"/>
</clipPath>
</defs>
</svg>
