<svg width="18" height="18" viewBox="0 0 18 18" fill="none" xmlns="http://www.w3.org/2000/svg">
<g clip-path="url(#clip0_2946_39)">
<mask id="mask0_2946_39" style="mask-type:luminance" maskUnits="userSpaceOnUse" x="0" y="0" width="18" height="18">
<path d="M0 0H18V18H0V0Z" fill="white"/>
</mask>
<g mask="url(#mask0_2946_39)">
<path d="M0 0H18V18H0V0Z" fill="black"/>
</g>
<path d="M10.6607 5H12V10.1486C12 10.713 11.8748 11.2094 11.6245 11.6378C11.3767 12.0662 11.0277 12.401 10.5776 12.6421C10.1276 12.8807 9.60168 13 9 13C8.39591 13 7.86883 12.8807 7.41877 12.6421C6.96871 12.401 6.61974 12.0662 6.37184 11.6378C6.12395 11.2094 6 10.713 6 10.1486V5H7.33935V10.0293C7.33935 10.3577 7.40674 10.6502 7.54152 10.9067C7.6787 11.1632 7.87124 11.3646 8.11913 11.5108C8.36703 11.6545 8.66065 11.7263 9 11.7263C9.33935 11.7263 9.63297 11.6545 9.88087 11.5108C10.1312 11.3646 10.3237 11.1632 10.4585 10.9067C10.5933 10.6502 10.6607 10.3577 10.6607 10.0293V5Z" fill="#05AD75"/>
</g>
<defs>
<clipPath id="clip0_2946_39">
<rect width="18" height="18" fill="white"/>
</clipPath>
</defs>
</svg>
