<svg width="18" height="18" viewBox="0 0 18 18" fill="none" xmlns="http://www.w3.org/2000/svg">
<g clip-path="url(#clip0_3016_88)">
<path d="M0 0H18V18H0V0Z" fill="black"/>
<path d="M12.1377 4.40039C12.3351 4.40039 12.5018 4.44914 12.6182 4.56543C12.7345 4.68178 12.7842 4.84853 12.7842 5.0459V10.4023C12.7841 11.4083 12.544 12.1731 12.0459 12.6758C11.5473 13.1744 10.7817 13.4141 9.77148 13.4141H8.21191C7.20574 13.4141 6.44023 13.1749 5.9375 12.6768V12.6758C5.4394 12.1731 5.20025 11.4083 5.2002 10.4023V5.0459C5.20021 4.84853 5.24889 4.68178 5.36523 4.56543C5.48158 4.44908 5.64833 4.40041 5.8457 4.40039C6.04306 4.40039 6.20981 4.44913 6.32617 4.56543C6.44252 4.68178 6.49217 4.84853 6.49219 5.0459V10.4023C6.49221 10.8593 6.54549 11.2081 6.64648 11.4551L6.6875 11.542C6.79165 11.7364 6.94763 11.877 7.15723 11.9668C7.40435 12.0681 7.75415 12.1221 8.21191 12.1221H9.77148C10.2292 12.1221 10.5791 12.0681 10.8262 11.9668C11.0656 11.8643 11.232 11.6953 11.3301 11.4561L11.3311 11.4551C11.4362 11.2085 11.4922 10.8596 11.4922 10.4023V5.0459C11.4922 4.84853 11.5409 4.68178 11.6572 4.56543C11.7736 4.44908 11.9403 4.40041 12.1377 4.40039Z" fill="white" stroke="white" stroke-width="0.2"/>
</g>
<defs>
<clipPath id="clip0_3016_88">
<rect width="18" height="18" fill="white"/>
</clipPath>
</defs>
</svg>
