<svg width="18" height="18" viewBox="0 0 18 18" fill="none" xmlns="http://www.w3.org/2000/svg">
<g clip-path="url(#clip0_3016_114)">
<mask id="mask0_3016_114" style="mask-type:luminance" maskUnits="userSpaceOnUse" x="0" y="0" width="18" height="18">
<path d="M18 0H0V18H18V0Z" fill="white"/>
</mask>
<g mask="url(#mask0_3016_114)">
<path d="M0 0H18V18H0V0Z" fill="black"/>
<path d="M5.3715 4.49812C5.56088 4.40392 5.7417 4.37047 5.90275 4.42878C6.06511 4.48759 6.18075 4.62943 6.26017 4.82331L9.01017 11.337L11.6908 4.82331C11.7682 4.63121 11.8831 4.49141 12.0453 4.43269C12.2063 4.37439 12.3884 4.40563 12.5805 4.49812L12.5834 4.49909C12.7506 4.58509 12.8688 4.70329 12.9135 4.85945H12.9115C12.9587 5.00433 12.9434 5.16213 12.8773 5.32722L12.8764 5.32917L9.63908 12.9347L9.6381 12.9376C9.56594 13.0912 9.47427 13.214 9.35978 13.298C9.24413 13.3827 9.1101 13.4239 8.96232 13.4239H8.91056C8.63069 13.4239 8.42528 13.2418 8.28654 12.9366L8.28556 12.9337L5.07463 5.32917C5.00434 5.16503 4.98081 5.00803 5.01799 4.86335C5.0587 4.70053 5.18879 4.58245 5.3715 4.49812Z" fill="#8449FA" stroke="#8449FA" stroke-width="0.2"/>
</g>
</g>
<defs>
<clipPath id="clip0_3016_114">
<rect width="18" height="18" fill="white"/>
</clipPath>
</defs>
</svg>
