<svg width="18" height="18" viewBox="0 0 18 18" fill="none" xmlns="http://www.w3.org/2000/svg">
<g clip-path="url(#clip0_3016_88)">
<path d="M0 0H18V18H0V0Z" fill="black"/>
<path d="M5.37158 4.49805C5.56096 4.40385 5.74178 4.3704 5.90283 4.42871C6.06519 4.48752 6.18083 4.62936 6.26025 4.82324H6.25928L9.01025 11.3369L11.6909 4.82324C11.7683 4.63114 11.8832 4.49134 12.0454 4.43262C12.2064 4.37432 12.3885 4.40556 12.5806 4.49805L12.5835 4.49902C12.7507 4.58502 12.8689 4.70322 12.9136 4.85938H12.9116C12.9588 5.00426 12.9435 5.16206 12.8774 5.32715L12.8765 5.3291L9.63916 12.9346L9.63818 12.9375C9.56602 13.0911 9.47435 13.2139 9.35986 13.2979C9.24421 13.3826 9.11018 13.4238 8.9624 13.4238H8.91064C8.63077 13.4238 8.42536 13.2417 8.28662 12.9365L8.28564 12.9336L5.07471 5.3291C5.00442 5.16496 4.98089 5.00796 5.01807 4.86328H5.01709C5.0578 4.70046 5.18887 4.5814 5.37158 4.49707V4.49805Z" fill="white" stroke="white" stroke-width="0.2"/>
</g>
<defs>
<clipPath id="clip0_3016_88">
<rect width="18" height="18" fill="white"/>
</clipPath>
</defs>
</svg>
