<svg width="86" height="82" viewBox="0 0 86 82" fill="none" xmlns="http://www.w3.org/2000/svg">
<g clip-path="url(#clip0_2945_26)">
<path d="M1.23467 31.702C1.10167 19.741 0.717667 15.607 3.82067 10.656C8.84167 2.64503 14.3137 1.06503 18.1947 0.47303C23.3687 -0.31797 26.8837 0.12203 33.4637 0.12203H52.4557C63.7357 0.12203 56.3927 0.12203 60.9327 0.12203C70.9487 -0.53597 77.7807 6.37703 77.7807 6.37703C83.7497 12.961 83.7497 19.94 83.7497 19.94V50.232C83.7497 61.285 83.5517 61.879 83.5517 61.879C83.5517 61.879 83.5517 70.57 75.7907 77.219C70.2137 81.998 64.8297 82.244 52.4557 81.893H33.4637C23.3067 81.651 19.4587 82.902 12.0917 79.149C5.00967 75.54 2.21267 70.391 1.23467 62.206C0.706667 57.789 1.23467 61.364 1.23467 50.311V31.702Z" fill="url(#paint0_linear_2945_26)"/>
<path d="M35.2056 24.6022L32.3546 26.5282C32.1296 26.7542 32.0596 26.8942 32.3546 27.1022L32.6326 27.3282L36.4356 29.9852C36.4356 29.9852 40.2116 27.9342 41.0176 27.5882C42.4376 26.9512 43.9756 26.6252 45.5306 26.6322C46.5846 26.7032 47.6306 26.8612 48.6576 27.1062C49.9696 27.4842 51.2116 28.0702 52.3386 28.8432L53.4096 29.5552C53.4496 29.5952 53.4966 29.6272 53.5486 29.6502C53.6016 29.6732 53.6576 29.6842 53.7146 29.6842C53.7716 29.6842 53.8286 29.6722 53.8816 29.6502C53.9336 29.6272 53.9796 29.5952 54.0196 29.5552C54.0636 29.5232 54.0986 29.4822 54.1236 29.4342C54.3636 29.0612 54.5546 28.6582 54.6896 28.2362C54.7796 27.9012 54.8266 27.5562 54.8286 27.2092C54.8306 26.7142 54.7296 26.2232 54.5326 25.7692C54.3366 25.3152 54.0486 24.9062 53.6866 24.5692L52.9556 23.9282C52.0756 23.0802 51.0656 22.3792 49.9646 21.8522L49.1266 21.4332C47.6546 20.8762 46.0936 20.5942 44.5206 20.6002C42.8026 20.6622 39.9126 21.4342 35.2066 24.6042L35.2056 24.6022Z" fill="#FCFCFC"/>
<g opacity="0.9">
<path d="M24.0195 33.517C23.9935 33.81 23.9935 34.104 24.0195 34.397C24.1605 35.101 24.5525 35.731 25.1235 36.173L26.1595 37.003C31.5785 41.049 37.1805 44.921 42.7165 48.745L43.5535 49.225C43.9175 49.416 44.3155 49.536 44.7245 49.576H44.8575C45.5175 49.576 46.1585 49.36 46.6815 48.963L51.8165 45.377C53.4895 44.132 55.2945 42.903 56.9505 41.613C57.4965 41.18 58.0035 40.703 58.4675 40.185C59.7475 38.699 60.5495 36.867 60.7705 34.924C60.7705 34.293 60.8515 33.579 60.8515 32.832V29.098C60.8595 29.026 60.8595 28.953 60.8515 28.882V28.949C60.8375 29.687 60.7135 30.42 60.4845 31.123C59.8275 33.123 58.5495 34.865 56.8335 36.101C53.5875 38.44 50.3275 40.781 46.9995 43.038L46.2405 43.47C45.8725 43.656 45.4655 43.752 45.0535 43.752H44.8535C44.6505 43.744 44.4495 43.713 44.2545 43.658C44.1015 43.618 43.9545 43.559 43.8165 43.483L42.6295 42.782C38.6475 40.071 34.7025 37.305 30.7955 34.483L25.6605 30.625L24.9075 29.924C24.5765 29.589 24.3565 29.163 24.2755 28.701V28.522C24.2225 28.522 24.0175 33.519 24.0175 33.519L24.0195 33.517Z" fill="url(#paint1_radial_2945_26)"/>
</g>
<path d="M60.4977 43.851C60.5567 43.676 60.6377 43.425 60.7227 43.178V46.5079C60.7207 47.1419 60.6717 47.775 60.5737 48.402C60.2477 50.581 59.1427 52.5699 57.4617 54.0079L55.9447 55.25C54.2087 56.541 52.4227 57.784 50.6177 59.027L46.7447 61.694L46.4027 61.889C45.9697 62.165 45.4657 62.3099 44.9517 62.3069C44.6487 62.3099 44.3487 62.2579 44.0647 62.1539C43.6557 62.0159 43.2697 61.818 42.9197 61.568L31.2167 53.457L25.4327 49.1769C25.0987 48.9429 24.8167 48.643 24.6037 48.297C24.3917 47.956 24.2507 47.5739 24.1927 47.1769C24.1767 46.9429 24.1767 46.7089 24.1927 46.4749V42.5229C24.2597 42.6739 24.3437 42.818 24.4417 42.951C24.7147 43.274 25.0297 43.559 25.3797 43.798L29.1727 46.616C32.8097 49.286 36.5027 51.877 40.2507 54.388L42.6757 56.046L43.7117 56.5929H43.7327C44.1567 56.7579 44.6137 56.8219 45.0667 56.7809C45.5187 56.7409 45.9557 56.5969 46.3427 56.3619L46.8267 56.0979H46.8347L56.5347 49.229C57.3797 48.626 58.1317 47.903 58.7657 47.084C59.5357 46.119 60.1227 45.0229 60.4977 43.8499V43.851Z" fill="url(#paint2_radial_2945_26)"/>
<g opacity="0.9">
<g opacity="0.9">
<path d="M60.5055 43.85C60.5645 43.675 60.6455 43.424 60.7305 43.177V46.507C60.7285 47.141 60.6795 47.774 60.5815 48.401C60.2555 50.58 59.1505 52.569 57.4695 54.007L55.9525 55.249C54.2165 56.54 52.4305 57.783 50.6255 59.026L46.7525 61.693L46.4105 61.888C45.9775 62.164 45.4735 62.309 44.9595 62.306C44.6565 62.309 44.3565 62.257 44.0725 62.153C43.6635 62.015 43.2775 61.817 42.9275 61.567L31.2245 53.456L25.4405 49.176C25.1065 48.942 24.8245 48.642 24.6115 48.296C24.3985 47.954 24.2585 47.573 24.1995 47.176C24.1835 46.942 24.1835 46.708 24.1995 46.474V42.522C24.2665 42.673 24.3505 42.817 24.4485 42.95C24.7215 43.273 25.0365 43.557 25.3865 43.797L29.1795 46.615C32.8165 49.286 36.5095 51.876 40.2575 54.387L42.6835 56.045L43.7195 56.592H43.7405C44.1645 56.757 44.6215 56.821 45.0745 56.78C45.5265 56.74 45.9635 56.596 46.3505 56.361L46.8345 56.098H46.8425L56.5425 49.229C57.3875 48.626 58.1395 47.903 58.7735 47.084C59.5435 46.119 60.1305 45.023 60.5055 43.85Z" fill="url(#paint3_radial_2945_26)"/>
</g>
</g>
<path d="M35.2056 24.6022L32.3546 26.5282C32.1296 26.7542 32.0596 26.8942 32.3546 27.1022L32.6326 27.3282L36.4356 29.9852C36.4356 29.9852 40.2116 27.9342 41.0176 27.5882C42.4376 26.9512 43.9756 26.6252 45.5306 26.6322C46.5846 26.7032 47.6306 26.8612 48.6576 27.1062C49.9696 27.4842 51.2116 28.0702 52.3386 28.8432L53.4096 29.5552C53.4496 29.5952 53.4966 29.6272 53.5486 29.6502C53.6016 29.6732 53.6576 29.6842 53.7146 29.6842C53.7716 29.6842 53.8286 29.6722 53.8816 29.6502C53.9336 29.6272 53.9796 29.5952 54.0196 29.5552C54.0636 29.5232 54.0986 29.4822 54.1236 29.4342C54.3636 29.0612 54.5546 28.6582 54.6896 28.2362C54.7796 27.9012 54.8266 27.5562 54.8286 27.2092C54.8306 26.7142 54.7296 26.2232 54.5326 25.7692C54.3366 25.3152 54.0486 24.9062 53.6866 24.5692L52.9556 23.9282C52.0756 23.0802 51.0656 22.3792 49.9646 21.8522L49.1266 21.4332C47.6546 20.8762 46.0936 20.5942 44.5206 20.6002C42.8026 20.6622 39.9126 21.4342 35.2066 24.6042L35.2056 24.6022Z" fill="white"/>
<path d="M24.0195 33.517C23.9935 33.81 23.9935 34.104 24.0195 34.397C24.1605 35.101 24.5525 35.731 25.1235 36.173L26.1595 37.003C31.5785 41.049 37.1805 44.921 42.7165 48.745L43.5535 49.225C43.9175 49.416 44.3155 49.536 44.7245 49.576H44.8575C45.5175 49.576 46.1585 49.36 46.6815 48.963L51.8165 45.377C53.4895 44.132 55.2945 42.903 56.9505 41.613C57.4965 41.18 58.0035 40.703 58.4675 40.185C59.7475 38.699 60.5495 36.867 60.7705 34.924C60.7705 34.293 60.8515 33.579 60.8515 32.832V29.098C60.8595 29.026 60.8595 28.953 60.8515 28.882V28.949C60.8375 29.687 60.7135 30.42 60.4845 31.123C59.8275 33.123 58.5495 34.865 56.8335 36.101C53.5875 38.44 50.3275 40.781 46.9995 43.038L46.2405 43.47C45.8725 43.656 45.4655 43.752 45.0535 43.752H44.8535C44.6505 43.744 44.4495 43.713 44.2545 43.658C44.1015 43.618 43.9545 43.559 43.8165 43.483L42.6295 42.782C38.6475 40.071 34.7025 37.305 30.7955 34.483L25.6605 30.625L24.9075 29.924C24.5765 29.589 24.3565 29.163 24.2755 28.701V28.522C24.2225 28.522 24.0175 33.519 24.0175 33.519L24.0195 33.517Z" fill="url(#paint4_radial_2945_26)"/>
<path d="M60.4977 43.851C60.5567 43.676 60.6377 43.425 60.7227 43.178V46.5079C60.7207 47.1419 60.6717 47.775 60.5737 48.402C60.2477 50.581 59.1427 52.5699 57.4617 54.0079L55.9447 55.25C54.2087 56.541 52.4227 57.784 50.6177 59.027L46.7447 61.694L46.4027 61.889C45.9697 62.165 45.4657 62.3099 44.9517 62.3069C44.6487 62.3099 44.3487 62.2579 44.0647 62.1539C43.6557 62.0159 43.2697 61.818 42.9197 61.568L31.2167 53.457L25.4327 49.1769C25.0987 48.9429 24.8167 48.643 24.6037 48.297C24.3917 47.956 24.2507 47.5739 24.1927 47.1769C24.1767 46.9429 24.1767 46.7089 24.1927 46.4749V42.5229C24.2597 42.6739 24.3437 42.818 24.4417 42.951C24.7147 43.274 25.0297 43.559 25.3797 43.798L29.1727 46.616C32.8097 49.286 36.5027 51.877 40.2507 54.388L42.6757 56.046L43.7117 56.5929H43.7327C44.1567 56.7579 44.6137 56.8219 45.0667 56.7809C45.5187 56.7409 45.9557 56.5969 46.3427 56.3619L46.8267 56.0979H46.8347L56.5347 49.229C57.3797 48.626 58.1317 47.903 58.7657 47.084C59.5357 46.119 60.1227 45.0229 60.4977 43.8499V43.851Z" fill="url(#paint5_radial_2945_26)"/>
<g opacity="0.9">
<path d="M60.5055 43.85C60.5645 43.675 60.6455 43.424 60.7305 43.177V46.507C60.7285 47.141 60.6795 47.774 60.5815 48.401C60.2555 50.58 59.1505 52.569 57.4695 54.007L55.9525 55.249C54.2165 56.54 52.4305 57.783 50.6255 59.026L46.7525 61.693L46.4105 61.888C45.9775 62.164 45.4735 62.309 44.9595 62.306C44.6565 62.309 44.3565 62.257 44.0725 62.153C43.6635 62.015 43.2775 61.817 42.9275 61.567L31.2245 53.456L25.4405 49.176C25.1065 48.942 24.8245 48.642 24.6115 48.296C24.3985 47.954 24.2585 47.573 24.1995 47.176C24.1835 46.942 24.1835 46.708 24.1995 46.474V42.522C24.2665 42.673 24.3505 42.817 24.4485 42.95C24.7215 43.273 25.0365 43.557 25.3865 43.797L29.1795 46.615C32.8165 49.286 36.5095 51.876 40.2575 54.387L42.6835 56.045L43.7195 56.592H43.7405C44.1645 56.757 44.6215 56.821 45.0745 56.78C45.5265 56.74 45.9635 56.596 46.3505 56.361L46.8345 56.098H46.8425L56.5425 49.229C57.3875 48.626 58.1395 47.903 58.7735 47.084C59.5435 46.119 60.1305 45.023 60.5055 43.85Z" fill="url(#paint6_radial_2945_26)"/>
</g>
</g>
<defs>
<linearGradient id="paint0_linear_2945_26" x1="22.0157" y1="1.54003" x2="62.2947" y2="79.722" gradientUnits="userSpaceOnUse">
<stop stop-color="#33343B"/>
<stop offset="1" stop-color="#26272C"/>
</linearGradient>
<radialGradient id="paint1_radial_2945_26" cx="0" cy="0" r="1" gradientUnits="userSpaceOnUse" gradientTransform="translate(37.4928 5.43706) rotate(54.83) scale(63.094 113.979)">
<stop stop-color="#0A0909"/>
<stop offset="1" stop-opacity="0.4"/>
</radialGradient>
<radialGradient id="paint2_radial_2945_26" cx="0" cy="0" r="1" gradientUnits="userSpaceOnUse" gradientTransform="translate(69.4184 26.6415) rotate(127.07) scale(44.703 82.114)">
<stop/>
<stop offset="1" stop-color="#0F1010"/>
</radialGradient>
<radialGradient id="paint3_radial_2945_26" cx="0" cy="0" r="1" gradientUnits="userSpaceOnUse" gradientTransform="translate(37.9451 21.3351) rotate(53.368) scale(60.388 110.937)">
<stop/>
<stop offset="1" stop-opacity="0.93"/>
</radialGradient>
<radialGradient id="paint4_radial_2945_26" cx="0" cy="0" r="1" gradientUnits="userSpaceOnUse" gradientTransform="translate(37.4928 5.43706) rotate(54.83) scale(63.094 113.979)">
<stop stop-color="white"/>
<stop offset="1" stop-color="#FAFAFA"/>
</radialGradient>
<radialGradient id="paint5_radial_2945_26" cx="0" cy="0" r="1" gradientUnits="userSpaceOnUse" gradientTransform="translate(69.4184 26.6415) rotate(127.07) scale(44.703 82.114)">
<stop stop-color="#F1F6FB"/>
<stop offset="1" stop-color="#E5F4F5" stop-opacity="0.31"/>
</radialGradient>
<radialGradient id="paint6_radial_2945_26" cx="0" cy="0" r="1" gradientUnits="userSpaceOnUse" gradientTransform="translate(37.5875 21.0712) rotate(53.368) scale(60.388 5.785)">
<stop stop-color="white"/>
<stop offset="1" stop-color="white"/>
</radialGradient>
<clipPath id="clip0_2945_26">
<rect width="86" height="82" fill="white"/>
</clipPath>
</defs>
</svg>
