<svg width="18" height="18" viewBox="0 0 18 18" fill="none" xmlns="http://www.w3.org/2000/svg">
<g clip-path="url(#clip0_3040_210)">
<mask id="mask0_3040_210" style="mask-type:luminance" maskUnits="userSpaceOnUse" x="0" y="0" width="18" height="18">
<path d="M0 0H18V18H0V0Z" fill="white"/>
</mask>
<g mask="url(#mask0_3040_210)">
<path d="M0 0H18V18H0V0Z" fill="black"/>
</g>
<g clip-path="url(#clip1_3040_210)">
<path d="M9.14391 5.0025L9.00091 5C6.93091 5 5.06441 6.4615 4.03041 8.853C4.01035 8.89941 4 8.94944 4 9C4 9.05056 4.01035 9.10059 4.03041 9.147L4.10191 9.3085C5.12291 11.5465 6.88741 12.932 8.85591 12.9975L8.99891 13C11.0689 13 12.9354 11.5385 13.9694 9.147C13.9897 9.1 14.0001 9.0493 13.9998 8.99809C13.9996 8.94689 13.9887 8.89629 13.9679 8.8495L13.8979 8.693C12.8749 6.45 11.1094 5.068 9.14391 5.0025ZM9.00441 5.7445L9.12391 5.7475L9.25741 5.754C10.8559 5.8675 12.3259 7.053 13.2144 8.9995L13.2094 9.0115C12.2994 11 10.7784 12.1925 9.12941 12.2525L9.00191 12.2545L8.87341 12.2525L8.74041 12.2455C7.19141 12.136 5.76291 11.017 4.86941 9.18L4.78491 9L4.86341 8.833C5.80491 6.8865 7.34491 5.7445 9.00441 5.7445ZM8.99941 7.0565C7.91941 7.0565 7.04441 7.9265 7.04441 9C7.04441 10.073 7.91941 10.943 8.99941 10.943C10.0794 10.943 10.9554 10.073 10.9554 9C10.9554 7.9265 10.0799 7.0565 8.99941 7.0565ZM8.99941 7.8015C9.15734 7.80091 9.31384 7.83145 9.45997 7.89137C9.60609 7.95129 9.73898 8.03942 9.85103 8.15073C9.96307 8.26203 10.0521 8.39433 10.113 8.54005C10.1739 8.68577 10.2055 8.84207 10.2059 9C10.2054 9.15785 10.1738 9.31405 10.1129 9.45968C10.052 9.60531 9.96301 9.73753 9.85103 9.84877C9.73904 9.96002 9.60624 10.0481 9.4602 10.108C9.31417 10.168 9.15776 10.1985 8.99991 10.198C8.84213 10.1985 8.6858 10.1678 8.53985 10.1079C8.3939 10.0479 8.26119 9.95981 8.14929 9.84857C8.0374 9.73732 7.94851 9.60513 7.88771 9.45953C7.8269 9.31393 7.79537 9.15778 7.79491 9C7.79537 8.84222 7.8269 8.68607 7.88771 8.54047C7.94851 8.39487 8.0374 8.26268 8.14929 8.15143C8.26119 8.04019 8.3939 7.95207 8.53985 7.89212C8.6858 7.83216 8.84213 7.80154 8.99991 7.802L8.99941 7.8015Z" fill="#FFA16C"/>
</g>
</g>
<defs>
<clipPath id="clip0_3040_210">
<rect width="18" height="18" fill="white"/>
</clipPath>
<clipPath id="clip1_3040_210">
<rect width="12" height="12" fill="white" transform="translate(3 3)"/>
</clipPath>
</defs>
</svg>
